<svg xmlns="http://www.w3.org/2000/svg" width="48" height="50" viewBox="0 0 48 50">
    <g fill="none" fill-rule="nonzero">
        <path fill="#EAAB00" d="M47.738 48.402L33.753 33.814a19.791 19.791 0 0 0 5.777-13.99C39.53 8.892 30.664 0 19.765 0 8.865 0 0 8.892 0 19.824c0 10.932 8.866 19.824 19.765 19.824 4.784 0 9.174-1.715 12.597-4.561L46.38 49.71a.937.937 0 0 0 1.33.026.947.947 0 0 0 .027-1.334zM19.765 37.76c-9.86 0-17.883-8.046-17.883-17.936S9.904 1.888 19.765 1.888c9.86 0 17.882 8.046 17.882 17.936S29.625 37.76 19.765 37.76z"/>
        <g fill="#003946">
            <path d="M23.667 16h-8.334a.342.342 0 0 0-.333.35c0 .194.15.35.333.35h8.334a.342.342 0 0 0 .333-.35c0-.194-.15-.35-.333-.35zM15.333 14.7h3.334a.342.342 0 0 0 .333-.35c0-.194-.15-.35-.333-.35h-3.334a.342.342 0 0 0-.333.35c0 .194.15.35.333.35zM23.667 19h-8.334a.342.342 0 0 0-.333.35c0 .194.15.35.333.35h8.334a.342.342 0 0 0 .333-.35c0-.194-.15-.35-.333-.35zM23.667 22h-8.334a.342.342 0 0 0-.333.35c0 .194.15.35.333.35h8.334a.342.342 0 0 0 .333-.35c0-.194-.15-.35-.333-.35zM23.667 24h-8.334a.342.342 0 0 0-.333.35c0 .194.15.35.333.35h8.334a.342.342 0 0 0 .333-.35c0-.194-.15-.35-.333-.35z"/>
            <path d="M23.035 9H12v20h16V13.862L23.035 9zm.199 1.138l3.604 3.529h-3.604v-3.529zM12.681 28.333V9.667h9.872v4.666h4.766v14H12.681z"/>
        </g>
    </g>
</svg>
