<svg xmlns="http://www.w3.org/2000/svg" width="48" height="50" viewBox="0 0 48 50">
    <g fill="none" fill-rule="evenodd">
        <path fill="#EAAB00" fill-rule="nonzero" d="M45.811 37.894c-5.192-4.142-10.765-7.05-12.827-8.062v-7.248a5.448 5.448 0 0 0 1.858-4.068V9.54C34.842 4.29 30.414 0 24.992 0h-1.985c-5.42 0-9.849 4.29-9.849 9.541v8.95c0 1.578.687 3.033 1.858 4.068v7.273c-2.062 1.011-7.635 3.92-12.827 8.062C.789 39.004 0 40.631 0 42.382v6.139C0 49.334.16 50 1 50s1.054-.666 1.054-1.48v-6.138a2.81 2.81 0 0 1 1.069-2.22c5.625-4.462 11.707-7.445 12.853-7.987.661-.321 1.094-.962 1.094-1.677v-8.63c0-.492-.255-.96-.687-1.232a2.525 2.525 0 0 1-1.17-2.12V9.54c0-3.624 4.053-7.582 7.794-7.582h1.986c3.74 0 7.795 3.958 7.795 7.582v8.95c0 .863-.433 1.652-1.17 2.12-.433.272-.688.74-.688 1.233v8.63c0 .714.407 1.38 1.094 1.676 1.171.542 7.254 3.526 12.853 7.988a2.81 2.81 0 0 1 1.069 2.219v6.14c0 .837.214 1.503 1.054 1.503.84 0 1-.666 1-1.48v-6.138c0-1.75-.789-3.403-2.189-4.488z"/>
        <rect width="22" height="2" x="19" y="44" fill="#003946" rx="1"/>
    </g>
</svg>
