<svg xmlns="http://www.w3.org/2000/svg" xmlns:xlink="http://www.w3.org/1999/xlink" width="46" height="50" viewBox="0 0 46 50">
    <defs>
        <path id="a" d="M0 0h46v50H0z"/>
    </defs>
    <g fill="none" fill-rule="evenodd">
        <mask id="b" fill="#fff">
            <use xlink:href="#a"/>
        </mask>
        <path fill="#003946" d="M26.904 25.075a1.249 1.249 0 0 1 0-1.764L40.585 9.602l-1.028.115a1.244 1.244 0 0 1-1.374-1.1 1.249 1.249 0 0 1 1.101-1.379l4.539-.507c.235-.032.49.004.714.112.45.217.725.68.725 1.175v.001c0 .03-.024.058-.027.087l-.532 4.568a1.244 1.244 0 1 1-2.473-.277l.115-1.031-13.681 13.71a1.242 1.242 0 0 1-1.76-.001zM46 25.432v23.376c0 .69-.563 1.192-1.25 1.192H23.887c-.687 0-1.285-.503-1.285-1.192V38.547c0-.69.598-1.268 1.285-1.268h8.12c.688 0 1.298.579 1.298 1.268v8.959h3.858V32.914h-5.6v1.05a1.246 1.246 0 1 1-2.49 0v-2.247c0-.688.496-1.297 1.183-1.297h8.122c.687 0 1.274.609 1.274 1.297v15.789h3.857V26.679h-5.6v.392a1.245 1.245 0 1 1-2.49 0v-1.64c0-.688.52-1.246 1.208-1.246h8.121c.688 0 1.251.558 1.251 1.247zM25.092 47.506h5.725v-7.732h-5.725v7.732z" mask="url(#b)"/>
        <path fill="#EAAB00" d="M34.842 9.546c0-5.254-4.428-9.546-9.85-9.546h-1.985c-5.42 0-9.849 4.292-9.849 9.546V18.5c0 1.579.687 3.034 1.858 4.07v7.252c-2.062 1.012-7.635 3.922-12.827 8.067C.789 38.999 0 40.627 0 42.378v6.142C0 49.334.687 50 1.527 50c.84 0 1.527-.666 1.527-1.48v-6.142c0-.863.382-1.677 1.069-2.22 5.6-4.465 11.707-7.45 12.853-7.992.661-.32 1.094-.962 1.094-1.678v-8.633c0-.493-.255-.962-.687-1.233a2.527 2.527 0 0 1-1.17-2.122V9.546c0-3.626 3.053-6.586 6.794-6.586h1.986c3.74 0 6.795 2.96 6.795 6.586.141.636.679.954 1.612.954s1.414-.318 1.442-.954z" mask="url(#b)"/>
    </g>
</svg>
