<svg xmlns="http://www.w3.org/2000/svg" xmlns:xlink="http://www.w3.org/1999/xlink" width="49" height="50" viewBox="0 0 49 50">
    <defs>
        <path id="a" d="M48.93.089V38H.007V.089z"/>
    </defs>
    <g fill="none" fill-rule="evenodd">
        <g transform="translate(0 12)">
            <mask id="b" fill="#fff">
                <use xlink:href="#a"/>
            </mask>
            <path fill="#EAAB00" d="M9.262 2.686l4.314 6.943H3.116l6.146-6.943zm26.093 6.943l4.314-6.943 6.145 6.943h-10.46zm-3.92 7.506a.968.968 0 0 0-1.244.572l-5.717 15.449-7.837-21.593h29.16l-19.313 21.74 5.524-14.926a.967.967 0 0 0-.573-1.242zm-16.858-5.572l7.905 21.78-19.35-21.78h11.445zM26.6 2.023h11.2L33.498 8.95 26.6 2.023zM15.433 8.95L11.13 2.023h11.2L15.434 8.95zm9.032-6.33l6.978 7.01H17.488l6.977-7.01zm24.223 7.336L40.244.416a.969.969 0 0 0-.726-.327H9.412a.969.969 0 0 0-.725.326L.243 9.955a.966.966 0 0 0 .092 1.372l.006.007 23.4 26.34a.969.969 0 0 0 1.449 0l23.4-26.34.006-.007a.967.967 0 0 0 .092-1.371z" mask="url(#b)"/>
        </g>
        <path fill="#003946" d="M25 7a.99.99 0 0 0 1-.979V.98A.99.99 0 0 0 25 0a.99.99 0 0 0-1 .979V6.02A.99.99 0 0 0 25 7M28.886 9a.884.884 0 0 0 .627-.26l3.227-3.227a.886.886 0 0 0-1.253-1.253L28.26 7.487A.886.886 0 0 0 28.886 9M18.487 8.74a.883.883 0 0 0 1.253 0 .886.886 0 0 0 0-1.253L16.513 4.26a.886.886 0 0 0-1.253 1.253l3.227 3.227M32 25a1 1 0 1 1 0 2 1 1 0 0 1 0-2"/>
    </g>
</svg>
