<svg xmlns="http://www.w3.org/2000/svg" width="50" height="50" viewBox="0 0 50 50">
    <g fill="none" fill-rule="nonzero">
        <path fill="#003946" d="M33.026 11.946c.014-.061.037-.17.037-.236V6.677a.83.83 0 0 0-.821-.838.83.83 0 0 0-.821.838v3.772A10.745 10.745 0 0 0 25 8.355h-.071c-1.805 0-3.502.44-5.002 1.24V5.84a.83.83 0 0 0-.82-.839.83.83 0 0 0-.822.839v4.836c-2.62 2.072-4.309 5.417-4.286 9.056C14.04 25.903 18.966 31 25 31h.071c6.066 0 10.97-5.217 10.93-11.414a11.442 11.442 0 0 0-2.974-7.64zM25.06 29.323h-.061c-5.133 0-9.324-4.333-9.357-9.584-.034-5.272 4.138-9.707 9.298-9.707H25c5.133 0 9.324 4.333 9.357 9.584.034 5.271-4.137 9.707-9.297 9.707zM19 0c-.552 0-1 .335-1 .75v1.5c0 .415.448.75 1 .75s1-.335 1-.75V.75c0-.415-.448-.75-1-.75zM33 1c-.553 0-1 .335-1 .75v1.5c0 .415.447.75 1 .75.553 0 1-.335 1-.75v-1.5c0-.415-.447-.75-1-.75zM10 19c-.552 0-1 .358-1 .8v6.4c0 .442.448.8 1 .8s1-.358 1-.8v-6.4c0-.442-.448-.8-1-.8zM10 14c-.552 0-1 .335-1 .75v1.5c0 .415.448.75 1 .75s1-.335 1-.75v-1.5c0-.415-.448-.75-1-.75zM42 12c-.553 0-1 .358-1 .8v6.4c0 .442.447.8 1 .8.553 0 1-.358 1-.8v-6.4c0-.442-.447-.8-1-.8zM42 7c-.553 0-1 .335-1 .75v1.5c0 .415.447.75 1 .75.553 0 1-.335 1-.75v-1.5c0-.415-.447-.75-1-.75z"/>
        <path fill="#EAAB00" d="M29 21.9l-.006-.81a2.341 2.341 0 0 0-.777-1.72 2.662 2.662 0 0 0-1.852-.698l-1.742.015h-.005c-.477 0-.868-.366-.871-.812l-.005-.814c-.003-.449.385-.817.865-.82l.85-.005c.028.002.053.014.082.014h.005c.03 0 .055-.014.084-.016l2.461-.015c.482-.003.87-.353.866-.802-.004-.447-.392-.792-.871-.792h-.005l-1.675-.006-.005-.804c-.003-.447-.393-.815-.871-.815h-.005c-.481.003-.869.375-.866.823l.005.802h-.066c-1.44 0-2.605 1.103-2.596 2.448l.005.815c.01 1.339 1.18 2.424 2.614 2.424h1.763c.23 0 .447.074.612.224a.776.776 0 0 1 .259.569l.006.809c.004.448-.385.814-.866.816l-3.483.02c-.48.004-.868.37-.866.818.003.447.393.807.871.807h.006l1.741-.01.005.828c.003.447.393.807.871.807h.006c.48-.003.869-.369.865-.818l-.005-.828c1.44-.01 2.605-1.108 2.596-2.453z"/>
        <circle cx="19" cy="20" r="1" fill="#EAAB00"/>
        <circle cx="31" cy="20" r="1" fill="#EAAB00"/>
        <path fill="#EAAB00" d="M49.166 32h-9.167c-1.085 0-2.001.72-2.346 1.714H33.48c-.45 0-.813.37-.828.83L25.7 32.921a2.47 2.47 0 0 0-1.501.12l-6.525 2.663a2.95 2.95 0 0 0-1.714 1.885L3.217 33.744a2.466 2.466 0 0 0-2.235.412A2.513 2.513 0 0 0 0 36.16v1.859c0 .85.42 1.637 1.122 2.104l9.258 6.162a.83.83 0 0 0 .267.116l13.783 3.237a2.454 2.454 0 0 0 1.139 0l7.254-1.712a.81.81 0 0 0 .659.359h4.172C37.999 49.28 38.915 50 40 50h9.167c.46 0 .833-.383.833-.857V32.857a.846.846 0 0 0-.834-.857zM32.447 46.258l-7.252 1.71a.844.844 0 0 1-.392 0l-13.64-3.203-9.136-6.081a.8.8 0 0 1-.36-.665v-1.86c0-.339.196-.54.314-.63a.837.837 0 0 1 .766-.139l13.231 3.997a2.964 2.964 0 0 0 2.805 2.042H25c.46 0 .833-.384.833-.858a.845.845 0 0 0-.833-.857h-6.217c-.707 0-1.283-.563-1.283-1.251 0-.51.31-.966.79-1.162l6.525-2.664a.852.852 0 0 1 .518-.042l7.163 1.671-.049 9.992zm5.052.313h-3.333V35.43H37.5V46.57zm10.834 1.715h-8.334a.846.846 0 0 1-.833-.857V34.57c0-.473.373-.857.833-.857h8.334v14.572z"/>
        <path fill="#000" d="M45.2 45h-2.4c-.442 0-.8.447-.8 1 0 .553.358 1 .8 1h2.4c.442 0 .8-.447.8-1 0-.553-.358-1-.8-1z"/>
    </g>
</svg>
