<svg xmlns="http://www.w3.org/2000/svg" width="57" height="50" viewBox="0 0 57 50">
    <g fill="none" fill-rule="nonzero">
        <path fill="#EAAB00" d="M38.997 17.431c-2.38-1.905-4.934-3.243-5.88-3.708v-3.334a2.51 2.51 0 0 0 .852-1.872V4.39C33.97 1.973 31.94 0 29.455 0h-.91c-2.485 0-4.514 1.973-4.514 4.39v4.116c0 .726.315 1.395.851 1.871v3.346c-.945.465-3.5 1.803-5.879 3.708A2.62 2.62 0 0 0 18 19.496v2.824c0 .374.315.68.7.68.385 0 .7-.306.7-.68v-2.824c0-.397.175-.772.49-1.021 2.578-2.053 5.366-3.425 5.89-3.675a.865.865 0 0 0 .502-.77v-3.97a.67.67 0 0 0-.315-.567 1.163 1.163 0 0 1-.536-.976V4.39c0-1.667 1.4-3.028 3.114-3.028h.91c1.715 0 3.114 1.36 3.114 3.028v4.117c0 .397-.198.76-.536.975a.67.67 0 0 0-.315.567v3.97c0 .329.187.635.502.771.536.25 3.324 1.622 5.89 3.675.315.249.49.623.49 1.02v2.824c0 .386.315.692.7.692.385 0 .7-.306.7-.68v-2.824c0-.806-.362-1.566-1.003-2.065zM55.997 44.429c-2.38-1.907-4.934-3.245-5.88-3.71v-3.337a2.512 2.512 0 0 0 .852-1.872v-4.119c0-2.417-2.03-4.391-4.514-4.391h-.91c-2.485 0-4.514 1.974-4.514 4.391v4.12c0 .725.315 1.395.851 1.871v3.336c-.945.466-3.5 1.804-5.879 3.71A2.621 2.621 0 0 0 35 46.495v2.825c0 .375.315.681.7.681.385 0 .7-.306.7-.68v-2.826c0-.397.175-.772.49-1.021 2.566-2.054 5.366-3.427 5.89-3.677a.865.865 0 0 0 .502-.771v-3.972a.671.671 0 0 0-.315-.567 1.163 1.163 0 0 1-.536-.976v-4.119c0-1.668 1.4-3.03 3.114-3.03h.91c1.715 0 3.114 1.362 3.114 3.03v4.12c0 .396-.198.76-.536.975a.671.671 0 0 0-.315.567v3.972c0 .329.187.635.502.771.536.25 3.324 1.623 5.89 3.677.315.25.49.624.49 1.02v2.826c0 .375.315.681.7.681.385 0 .7-.306.7-.68v-2.826c0-.806-.373-1.555-1.003-2.065zM20.997 44.429c-2.38-1.907-4.934-3.245-5.88-3.71v-3.337a2.512 2.512 0 0 0 .852-1.872v-4.119c0-2.417-2.03-4.391-4.514-4.391h-.91c-2.485 0-4.514 1.974-4.514 4.391v4.12c0 .725.315 1.395.851 1.871v3.336c-.945.466-3.5 1.804-5.879 3.71A2.621 2.621 0 0 0 0 46.495v2.825c0 .375.315.681.7.681.385 0 .7-.306.7-.68v-2.826c0-.397.175-.772.49-1.021 2.566-2.054 5.366-3.427 5.89-3.677a.865.865 0 0 0 .502-.771v-3.972a.671.671 0 0 0-.315-.567 1.163 1.163 0 0 1-.536-.976v-4.119c0-1.668 1.4-3.03 3.114-3.03h.91c1.715 0 3.114 1.362 3.114 3.03v4.12c0 .396-.198.76-.536.975a.671.671 0 0 0-.315.567v3.972c0 .329.187.635.502.771.536.25 3.324 1.623 5.89 3.677.315.25.49.624.49 1.02v2.826c0 .375.315.681.7.681.385 0 .7-.306.7-.68v-2.826c0-.806-.362-1.555-1.003-2.065z"/>
        <path fill="#003946" d="M36.64 35.676l-6.928-3.985v-7.982a.713.713 0 0 0-1.424 0v7.982l-6.929 3.985a.702.702 0 0 0-.26.97.712.712 0 0 0 .972.26L29 32.92l6.929 3.984a.712.712 0 0 0 .973-.26.702.702 0 0 0-.261-.97z"/>
    </g>
</svg>
