<svg xmlns="http://www.w3.org/2000/svg" width="51" height="50" viewBox="0 0 51 50">
    <g fill="#EAAB00" fill-rule="evenodd">
        <path fill-rule="nonzero" d="M50.97 21.133a.755.755 0 0 0-.576-.525l-5.361-1.09-2.421-4.883a.757.757 0 0 0-1.338-.038l-2.697 4.738-5.416.782a1.238 1.238 0 0 0-.186.053c-.131.07-.154.087-.176.104a1.044 1.044 0 0 0-.143.15c-.043.072-1.37 2.895-3.98 8.466l6.076-21.774c.027-.168.028-.2.027-.23a1.13 1.13 0 0 0-.035-.198 1.193 1.193 0 0 0-.084-.178 1.149 1.149 0 0 0-.133-.156 1.028 1.028 0 0 0-.171-.115 1.248 1.248 0 0 0-.199-.065l-5.417-.94L26.17.4a.758.758 0 0 0-1.339 0l-2.57 4.832-5.41.939c-.142.04-.164.048-.186.058-.13.073-.153.09-.175.11-.102.103-.121.127-.138.152-.072.13-.084.159-.093.188a1.15 1.15 0 0 0-.037.2c.007.142.011.166.016.19.005.021 2.034 7.295 6.087 21.82l-3.909-8.346a1.188 1.188 0 0 0-.13-.193 1.16 1.16 0 0 0-.152-.125 1.231 1.231 0 0 0-.18-.082c-.076-.018-1.92-.287-5.53-.81l-2.698-4.737a.757.757 0 0 0-1.337.038l-2.421 4.884-5.362 1.088a.751.751 0 1 0-.377 1.277l3.92 3.801-.617 5.41c-.004.14 0 .168.004.196.033.14.044.168.056.196.073.128.09.153.11.176.103.101.126.12.15.137.143.077.171.088.2.097L20.74 36.83h9.522l16.67-4.927c.153-.063.183-.08.211-.1.111-.091.13-.111.149-.133.085-.12.096-.141.106-.163.053-.141.059-.168.064-.195.012-.146.01-.177.007-.21l-.616-5.417 3.92-3.8a.75.75 0 0 0 .197-.752zM26.256 31.924v-16.4l4.029 1.964-4.029 14.436zm4.91-17.591l-.425-2.968 1.756-1.803-1.331 4.77zm-8.281-7.68c.23-.04.43-.183.539-.389l2.075-3.9 2.075 3.9c.11.206.309.35.54.39l4.369.758-3.087 3.17a.751.751 0 0 0-.206.63l.625 4.37-3.983-1.943-.013-.005a.732.732 0 0 0-.054-.023l-.023-.008a.75.75 0 0 0-.056-.016l-.024-.006a.712.712 0 0 0-.058-.01l-.023-.004a.77.77 0 0 0-.163 0l-.024.004a.792.792 0 0 0-.058.01l-.024.006a.727.727 0 0 0-.132.047c-.005.002-.01.003-.014.006l-3.983 1.942.625-4.37a.751.751 0 0 0-.206-.63l-3.087-3.17 4.37-.758zm-3.052 7.68l-1.332-4.771 1.756 1.803-.424 2.968zm.88 3.155l4.03-1.964v16.4l-4.03-14.436zM5.471 24.864L2.31 21.799l4.324-.878a.757.757 0 0 0 .527-.405l1.953-3.938 2.175 3.82c.115.203.318.342.55.375l4.367.63-2.98 3.24a.75.75 0 0 0-.187.636l.747 4.329-4.017-1.82a.76.76 0 0 0-.666.02l-3.906 2.044.497-4.364a.751.751 0 0 0-.223-.624zm.812 6.122l3.197-1.673 4.935 2.235 5.652 3.512-13.784-4.074zm9.18-.564l-.87-5.034 2.93-3.185 6.276 13.4-8.337-5.18zm11.738 5.18l6.276-13.399 2.93 3.185-.87 5.034-8.336 5.18zm3.732-.542l5.652-3.513 4.936-2.235 3.197 1.674-13.785 4.074zM45.53 24.864a.751.751 0 0 0-.224.624l.497 4.364-3.906-2.044a.759.759 0 0 0-.666-.02l-4.017 1.82.747-4.329a.75.75 0 0 0-.187-.636l-2.98-3.24 4.367-.63a.757.757 0 0 0 .55-.374l2.176-3.821 1.952 3.938a.757.757 0 0 0 .528.405l4.324.878-3.161 3.065z"/>
        <path fill="none" stroke="#003946" stroke-width="1.5" d="M39.282 45.4v2.8a1 1 0 0 1-1 1H12.715a1 1 0 0 1-1-1v-2.3a1 1 0 0 1 1-1h26.067a.5.5 0 0 1 .5.5zM32.22 38.5v2.812a1 1 0 0 1-1 1H19.78a1 1 0 0 1-1-1V39a1 1 0 0 1 1-1h11.94a.5.5 0 0 1 .5.5z"/>
    </g>
</svg>
