<svg xmlns="http://www.w3.org/2000/svg" width="42" height="50" viewBox="0 0 42 50">
    <g fill="none" fill-rule="evenodd">
        <path fill="#003946" d="M11.678 23.578c0 .345.161.609.483.791.322.182.82.371 1.491.567.672.196 1.225.392 1.66.588.433.196.804.49 1.112.882.308.392.462.91.462 1.554 0 .821-.277 1.489-.833 2.002-.555.513-1.29.826-2.205.938v1.225a.805.805 0 1 1-1.61 0V30.9a7.02 7.02 0 0 1-1.904-.518 6.235 6.235 0 0 1-.876-.487 1 1 0 0 1-.356-1.28l.063-.13a.851.851 0 0 1 1.235-.337c.354.234.66.405.914.512.644.27 1.232.406 1.764.406.458 0 .815-.084 1.071-.252a.817.817 0 0 0 .385-.728.82.82 0 0 0-.259-.623 1.983 1.983 0 0 0-.658-.399c-.266-.103-.632-.22-1.099-.35a12.514 12.514 0 0 1-1.645-.56 2.894 2.894 0 0 1-1.099-.854c-.308-.383-.462-.891-.462-1.526 0-.765.264-1.402.791-1.911.528-.509 1.24-.828 2.135-.959v-1.099a.805.805 0 0 1 1.61 0v1.085a7.62 7.62 0 0 1 1.61.364c.144.05.308.118.492.205a1 1 0 0 1 .48 1.326l-.027.058a.982.982 0 0 1-1.303.477 6.614 6.614 0 0 0-.727-.295c-.564-.182-1.047-.273-1.449-.273-.382 0-.686.07-.91.21a.682.682 0 0 0-.336.616zM9.985 37h5.03A.992.992 0 0 0 16 36c0-.552-.44-1-.985-1h-5.03A.992.992 0 0 0 9 36c0 .552.44 1 .985 1M18.057 39H9.943c-.52 0-.943.448-.943 1s.422 1 .943 1h8.114c.52 0 .943-.448.943-1s-.422-1-.943-1M16.304 5.683h4.92a.974.974 0 0 0 .971-.975.974.974 0 0 0-.972-.974h-4.919a.973.973 0 0 0-.972.974c0 .539.435.975.972.975M22.992 13h5.016A.996.996 0 0 0 29 12c0-.552-.444-1-.992-1h-5.016A.996.996 0 0 0 22 12c0 .552.444 1 .992 1"/>
        <path fill="#EAAB00" d="M39.913 36.686c-.041 3.075-.954 4.752-1.558 5.862-.284.522-.509.935-.562 1.375a.986.986 0 0 0-.007.119l.002 4.009h-9.17c-.255-1.947-.878-2.808-1.484-3.644-.355-.49-.69-.953-.993-1.7-.27-.665-.456-1.341-.654-2.057-.444-1.612-.903-3.28-2.346-4.718-.477-.476-.563-.847-.492-1.021.068-.166.337-.332.784-.332.776 0 1.62.693 2.153 1.766a.971.971 0 0 0 1.843-.434V21.038c0-.466.378-.845.842-.845.465 0 .843.38.843.845v11.655c0 .538.436.975.972.975a.973.973 0 0 0 .973-.975v-5.18a.84.84 0 0 1 .843-.834.84.84 0 0 1 .843.835v5.18c0 .537.435.974.972.974a.974.974 0 0 0 .972-.975V28.63a.84.84 0 0 1 1.221-.745l.027.014c.26.142.438.416.438.731v4.063c0 .538.435.975.972.975a.974.974 0 0 0 .972-.975V29.83a.84.84 0 0 1 .843-.834.85.85 0 0 1 .61.257.787.787 0 0 1 .233.564l-.092 6.869zM6.757 15.454H30.77v-6.42H6.757v6.42zm15.013 21.86c1.077 1.074 1.432 2.363 1.843 3.855.204.739.414 1.502.727 2.273.053.131.108.255.162.374H6.757V17.403H30.77v2.4a2.79 2.79 0 0 0-2.5-1.56 2.794 2.794 0 0 0-2.787 2.795v12.256c-.636-.429-1.338-.664-2.05-.665-1.202 0-2.191.59-2.582 1.538-.414 1.006-.08 2.153.918 3.147zM2 47.051V3.045a1 1 0 0 1 .999-1l31.404-.044a1 1 0 0 1 1.001 1V25.85a2.772 2.772 0 0 0-1.087.275 2.8 2.8 0 0 0-1.602-1.273V8.06a.974.974 0 0 0-.972-.975l-25.928-.08a1 1 0 0 0-1.003 1v36.762a1 1 0 0 0 1 1h19.903c.43.604.763 1.156.942 2.285H3a1 1 0 0 1-1-1zm37.162-20.005c-.42 0-.82.094-1.178.262-.162-.3-.38-.565-.636-.786V1a1 1 0 0 0-1-1H1a1 1 0 0 0-1 1v48a1 1 0 0 0 1 1h38.73v-5.86c.045-.13.203-.421.332-.659.654-1.2 1.747-3.21 1.795-6.77l.092-6.868a2.724 2.724 0 0 0-.792-1.96 2.817 2.817 0 0 0-1.995-.837z"/>
    </g>
</svg>
