<svg xmlns="http://www.w3.org/2000/svg" width="44" height="50" viewBox="0 0 44 50">
    <g fill="none" fill-rule="evenodd">
        <path fill="#EAAB00" fill-rule="nonzero" d="M44 40.833v-40c0-.5-.332-.833-.83-.833H5.83C5.332 0 5 .333 5 .833V12.5h1.66V1.667h35.68V40h-7.468c-.498 0-.83.333-.83.833v7.5H6.66v-12.5H5v13.334c0 .5.332.833.83.833h29.042a.752.752 0 0 0 .581-.25l8.298-8.333c.083-.084.083-.167.166-.25v-.084C44 41 44 40.917 44 40.833zm-8.298.834h5.477l-2.739 2.75-2.738 2.75v-5.5z"/>
        <path fill="#003946" fill-rule="nonzero" d="M10.74 31H19v-1.636h-2.478V13.818c0-.49-.33-.818-.826-.818h-4.957c-.496 0-.826.327-.826.818v4.91h-4.13c-.496 0-.826.327-.826.817v3.273H.827c-.497 0-.827.327-.827.818v6.546c0 .49.33.818.826.818h9.913zm.825-16.364h3.305v14.728h-3.305V14.636zM6.61 20.364h3.304v9H6.609v-9zm-4.957 4.09h3.305v4.91H1.652v-4.91z"/>
        <text fill="#003946" font-family="Montserrat-SemiBold, Montserrat" font-size="18" font-weight="500">
            <tspan x="21" y="18">12</tspan>
        </text>
        <path fill="#EAAB00" fill-rule="nonzero" d="M21 23h18v2H21zM21 28h18v2H21zM21 32h18v2H21zM10 5h5v2h-5zM10 9h7v2h-7zM10 36h6v2h-6zM18 36h6v2h-6zM26 36h6v2h-6zM10 40h6v2h-6zM18 40h6v2h-6zM26 40h6v2h-6zM10 44h6v2h-6zM18 44h6v2h-6zM26 44h6v2h-6z"/>
    </g>
</svg>
