<svg xmlns="http://www.w3.org/2000/svg" width="50" height="50" viewBox="0 0 50 50">
    <g fill="none" fill-rule="nonzero">
        <path fill="#003946" d="M48.852 1.195A3.974 3.974 0 0 0 46.032 0H46A4.011 4.011 0 0 0 42 3.967a3.974 3.974 0 0 0 1.148 2.838A3.974 3.974 0 0 0 45.968 8H46A4.011 4.011 0 0 0 50 4.033a3.974 3.974 0 0 0-1.148-2.838zM46 6.522h-.022a2.506 2.506 0 0 1-1.777-.753 2.506 2.506 0 0 1-.724-1.79 2.529 2.529 0 0 1 2.521-2.501h.022a2.506 2.506 0 0 1 1.777.753c.472.48.73 1.116.724 1.79A2.529 2.529 0 0 1 46 6.522zM4.033 21h-.034A4.011 4.011 0 0 0 0 24.967 4.005 4.005 0 0 0 3.967 29H4a4.011 4.011 0 0 0 4-3.967A4.005 4.005 0 0 0 4.033 21zM4 27.522h-.02a2.525 2.525 0 0 1-2.502-2.543 2.53 2.53 0 0 1 2.521-2.501h.022a2.525 2.525 0 0 1 2.501 2.543A2.529 2.529 0 0 1 4 27.522zM18.033 7h-.034A4.011 4.011 0 0 0 14 10.967 4.005 4.005 0 0 0 17.967 15h.034A4.011 4.011 0 0 0 22 11.033 4.004 4.004 0 0 0 18.033 7zM18 13.522h-.02a2.525 2.525 0 0 1-2.502-2.543 2.53 2.53 0 0 1 2.521-2.501h.022a2.525 2.525 0 0 1 2.501 2.543A2.529 2.529 0 0 1 18 13.522zM29.033 17h-.034A4.011 4.011 0 0 0 25 20.967 4.005 4.005 0 0 0 28.967 25h.034A4.011 4.011 0 0 0 33 21.033 4.005 4.005 0 0 0 29.033 17zM29 23.522h-.02a2.525 2.525 0 0 1-2.502-2.543 2.529 2.529 0 0 1 2.521-2.501h.021a2.525 2.525 0 0 1 2.502 2.543A2.529 2.529 0 0 1 29 23.522z"/>
        <path fill="#003946" d="M29.936 17.666L42.648 4.922l1.416 1.412-12.712 12.744zM20.464 12.879l1.415-1.415 5.657 5.657-1.415 1.415zM5.343 22.243l9.9-9.9 1.414 1.414-9.9 9.9z"/>
        <path fill="#EAAB00" d="M42 16v33a1 1 0 0 0 1 1h6a1 1 0 0 0 1-1V16a1 1 0 0 0-1-1h-6a1 1 0 0 0-1 1zm1.301 32.574V16.426h5.398v32.148h-5.398zM27 30v19a1 1 0 0 0 1 1h6a1 1 0 0 0 1-1V30a1 1 0 0 0-1-1h-6a1 1 0 0 0-1 1zm6.7 18.525H28.3v-18.05H33.7v18.05zM14 29v20a1 1 0 0 0 1 1h6a1 1 0 0 0 1-1V29a1 1 0 0 0-1-1h-6a1 1 0 0 0-1 1zm6.7 19.53H15.3V29.47H20.7v19.06zM0 35v14a1 1 0 0 0 1 1h6a1 1 0 0 0 1-1V35a1 1 0 0 0-1-1H1a1 1 0 0 0-1 1zm6.699 13.584H1.3V35.416h5.398v13.168z"/>
    </g>
</svg>
