<svg xmlns="http://www.w3.org/2000/svg" width="50" height="50" viewBox="0 0 50 50">
    <g fill="none" fill-rule="nonzero">
        <path fill="#EAAB00" d="M36.982 3.509C36.58 1.509 34.84 0 32.759 0a.869.869 0 0 0-.862.877c0 .485.385.877.862.877 1.425 0 2.586 1.181 2.586 2.632 0 1.45-1.16 2.632-2.586 2.632a.869.869 0 0 0-.862.877c0 .485.385.877.862.877 2.08 0 3.822-1.51 4.223-3.509h11.294v7.895H1.724V5.263H16.38a.869.869 0 0 0 .862-.877.869.869 0 0 0-.862-.877h-1.565c.357-1.02 1.305-1.755 2.427-1.755 1.426 0 2.587 1.181 2.587 2.632 0 1.45-1.16 2.632-2.587 2.632a.869.869 0 0 0-.862.877c0 .485.386.877.862.877 2.377 0 4.31-1.968 4.31-4.386S19.619 0 17.242 0c-2.08 0-3.822 1.51-4.223 3.509H1a1 1 0 0 0-1 1V49a1 1 0 0 0 1 1h48a1 1 0 0 0 1-1V4.509a1 1 0 0 0-1-1H36.982zm11.294 44.737H1.724V14.912h46.552v33.334z"/>
        <path fill="#EAAB00" d="M22.833 1.8c1.379 0 2.5 1.211 2.5 2.7s-1.121 2.7-2.5 2.7c-.46 0-.833.402-.833.9s.372.9.833.9C25.131 9 27 6.981 27 4.5S25.13 0 22.833 0c-.46 0-.833.402-.833.9s.372.9.833.9zM27.833 1.8c1.379 0 2.5 1.211 2.5 2.7s-1.121 2.7-2.5 2.7c-.46 0-.833.402-.833.9s.372.9.833.9C30.131 9 32 6.981 32 4.5S30.13 0 27.833 0c-.46 0-.833.402-.833.9s.372.9.833.9z"/>
        <path fill="#003946" d="M19 22a1 1 0 1 1 0-2 1 1 0 0 1 0 2zm6 0a1 1 0 1 1 0-2 1 1 0 0 1 0 2zm6 0a1 1 0 1 1 0-2 1 1 0 0 1 0 2zm6 0a1 1 0 1 1 0-2 1 1 0 0 1 0 2zm6 0a1 1 0 1 1 0-2 1 1 0 0 1 0 2zM7 29a1 1 0 1 1 0-2 1 1 0 0 1 0 2zm6 0a1 1 0 1 1 0-2 1 1 0 0 1 0 2zm6 0a1 1 0 1 1 0-2 1 1 0 0 1 0 2zm6 0a1 1 0 1 1 0-2 1 1 0 0 1 0 2zm6 0a1 1 0 1 1 0-2 1 1 0 0 1 0 2zm6 0a1 1 0 1 1 0-2 1 1 0 0 1 0 2zm6 0a1 1 0 1 1 0-2 1 1 0 0 1 0 2zM7 35a1 1 0 1 1 0-2 1 1 0 0 1 0 2zm6 0a1 1 0 1 1 0-2 1 1 0 0 1 0 2zm6 0a1 1 0 1 1 0-2 1 1 0 0 1 0 2zm6 0a1 1 0 1 1 0-2 1 1 0 0 1 0 2zm6 0a1 1 0 1 1 0-2 1 1 0 0 1 0 2zm6 0a1 1 0 1 1 0-2 1 1 0 0 1 0 2zm6 0a1 1 0 1 1 0-2 1 1 0 0 1 0 2zM7 42a1 1 0 1 1 0-2 1 1 0 0 1 0 2zm6 0a1 1 0 1 1 0-2 1 1 0 0 1 0 2zm6 0a1 1 0 1 1 0-2 1 1 0 0 1 0 2zm6 0a1 1 0 1 1 0-2 1 1 0 0 1 0 2zm6 0a1 1 0 1 1 0-2 1 1 0 0 1 0 2z"/>
    </g>
</svg>
