<svg xmlns="http://www.w3.org/2000/svg" width="158" height="30" viewBox="0 0 158 30">
    <g fill="#FFF" fill-rule="nonzero">
        <path d="M41.285 19.22c-.205-.756-.5-2.25-2.195-2.25-.41-.033-.815.11-1.112.392-.298.283-.46.678-.448 1.088 0 2.277 4.986 2.127 4.986 5.29 0 2.1-1.963 2.871-3.83 2.871a5.967 5.967 0 0 1-2.736-.593 6.506 6.506 0 0 1-.451-2.782l.738-.13c.22.887.732 2.96 2.736 2.96.445.025.88-.143 1.191-.46.312-.318.471-.754.437-1.197 0-2.495-4.829-2.304-4.829-5.339 0-1.875 1.464-2.659 3.475-2.659a4.8 4.8 0 0 1 2.442.546c.12.748.177 1.505.17 2.263h-.574zM49.178 25.834c-.699.473-1.521.734-2.366.75-2.415 0-2.524-1.364-2.524-2.973v-2.113c0-.518 0-1.18-.465-1.18a1.784 1.784 0 0 0-.486.062v-.43a10.796 10.796 0 0 1 2.832-.532v4.152c0 1.166.232 2.155 1.758 2.155a2.33 2.33 0 0 0 1.17-.368v-3.86c0-.517 0-1.179-.466-1.179a1.797 1.797 0 0 0-.506.062v-.43a10.796 10.796 0 0 1 2.832-.532v4.418c0 1.214 0 1.787.526 1.787.146.014.293.014.438 0v.382c-.77.246-1.557.444-2.353.593l-.39-.764zM53.864 21.498c0-.518 0-1.18-.465-1.18a1.818 1.818 0 0 0-.486.062v-.43c.906-.303 1.85-.482 2.804-.532v.86a3.625 3.625 0 0 1 2.463-.86c1.368 0 2.352.634 2.352 2.632v2.911c0 .784.076.948.637.989h.328v.382H57.7v-.382h.328c.561-.048.636-.205.636-.989V22.89c0-1.166 0-2.584-1.62-2.584a1.76 1.76 0 0 0-1.294.559v4.09c0 .785.076.948.637.99h.328v.381h-3.803v-.382h.328c.527-.048.609-.204.609-.988l.014-3.457zM94.636 26.005l.356-.048c.745-.089.745-.123.745-1.746v-5.406c0-1.555 0-1.623-.732-1.746l-.376-.048v-.381h7.182c.133.788.204 1.586.212 2.386l-.561.061c-.328-1.363-.404-1.895-2.428-1.895h-1.231v4.09h1.21c1.218 0 1.526 0 1.635-.633l.096-.519h.403v2.987h-.403l-.075-.56c-.124-.592-.513-.592-1.635-.592h-1.231v2.25c0 1.581 0 1.622.745 1.745l.356.048v.382h-4.268v-.375zM102.946 26.005h.329c.56-.062.636-.212.636-.996v-3.511c0-.518 0-1.18-.465-1.18a1.81 1.81 0 0 0-.5.089v-.437a10.9 10.9 0 0 1 2.832-.531v5.543c0 .784.082.934.636.995h.328v.382h-3.796v-.354zm.684-8.864a1.042 1.042 0 0 1 1.088-1.016 1.066 1.066 0 0 1 1.087 1.016c0 .6-.488 1.087-1.09 1.087a1.09 1.09 0 0 1-1.092-1.087h.007zM108.74 21.498c0-.518 0-1.18-.466-1.18-.17.006-.337.036-.499.089v-.437c.907-.301 1.85-.48 2.804-.531v.859a3.625 3.625 0 0 1 2.463-.86c1.368 0 2.353.635 2.353 2.632v2.912c0 .784.075.948.636.995h.328v.382h-3.803v-.382h.329c.56-.047.636-.211.636-.995v-2.093c0-1.166 0-2.584-1.621-2.584a1.76 1.76 0 0 0-1.293.559v4.09c0 .785.075.948.636.996h.328v.382h-3.768v-.382h.328c.533-.048.609-.211.609-.995v-3.457zM121.236 24.6c.007.267.027.533.061.798a1.473 1.473 0 0 1-.95.354 1.15 1.15 0 0 1-1.15-1.24c0-1.098.986-1.535 1.868-1.535h.17V24.6zm2.989 1.452a.384.384 0 0 1-.123 0c-.999 0-.999-1.097-.999-2.161v-1.8c0-1.684-.342-2.646-2.305-2.646-1.288.03-2.505.6-3.351 1.569.097.27.248.518.444.73h.158a2.05 2.05 0 0 1 1.853-1.467c1.108 0 1.368.784 1.368 1.657v.355c-1.327.347-4.063.818-4.063 2.713 0 .948.828 1.61 2.052 1.61a3.536 3.536 0 0 0 2.148-.778c.306.538.91.838 1.525.757.481.001.953-.126 1.368-.368l-.075-.17zM125.873 21.498c0-.518 0-1.18-.465-1.18a1.81 1.81 0 0 0-.5.089v-.437c.908-.301 1.85-.48 2.805-.531v.859a3.619 3.619 0 0 1 2.463-.86c1.402 0 2.352.635 2.352 2.632v2.912c0 .784.076.948.637.995h.328v.382h-3.796v-.382h.328c.561-.047.636-.211.636-.995v-2.093c0-1.166 0-2.584-1.62-2.584-.49-.001-.96.201-1.294.559v4.09c0 .785.076.948.643.996h.329v.382h-3.769v-.382h.328c.527-.048.609-.211.609-.995l-.014-3.457zM140.538 25.834a4.669 4.669 0 0 1-2.804.757c-1.697 0-3.646-1.111-3.646-3.266a3.921 3.921 0 0 1 1.219-2.823 3.947 3.947 0 0 1 2.885-1.084c.74-.061 1.482.11 2.12.491-.063.46-.277.887-.609 1.214h-.143a2.41 2.41 0 0 0-1.792-.962c-.999 0-1.683.9-1.683 2.394 0 2.202 1.368 3.177 2.893 3.177a5.206 5.206 0 0 0 1.416-.252l.144.354zM141.352 26.005h.328c.561-.062.636-.212.636-.996v-3.511c0-.518 0-1.18-.465-1.18-.17.006-.338.036-.5.089v-.437c.917-.301 1.87-.48 2.833-.531v5.543c0 .784.082.934.636.995h.328v.382h-3.796v-.354zm.684-8.864a1.042 1.042 0 0 1 1.087-1.016 1.066 1.066 0 0 1 1.088 1.016 1.093 1.093 0 0 1-1.091 1.005c-.57 0-1.046-.438-1.091-1.005h.007zM150.285 24.6c0 .28.048.682.061.798a1.466 1.466 0 0 1-.95.354 1.15 1.15 0 0 1-1.15-1.24c0-1.098.979-1.535 1.868-1.535h.17V24.6zm2.989 1.452a.384.384 0 0 1-.123 0c-1 0-1-1.097-1-2.161v-1.8c0-1.684-.341-2.646-2.304-2.646-1.289.03-2.505.6-3.352 1.569.086.278.228.535.418.756h.157a2.05 2.05 0 0 1 1.854-1.465c1.108 0 1.368.784 1.368 1.656v.355c-1.293.327-4.036.825-4.036 2.693 0 .948.82 1.61 2.052 1.61a3.543 3.543 0 0 0 2.148-.785c.305.54.91.84 1.525.757.48.001.953-.126 1.368-.368l-.075-.17zM153.95 26.005h.33c.56-.062.635-.212.635-.996v-6.675c0-1.302 0-1.875-.526-1.875h-.438v-.375c.93-.212 1.878-.326 2.832-.34v9.238c0 .784.075.934.636.995h.328v.382h-3.796v-.354zM65.594 26.005l.376-.048c.732-.13.732-.075.732-1.76v-5.454c0-1.432 0-1.609-.732-1.711l-.376-.048v-.354h4.234v.381l-.376.048c-.732.102-.732.28-.732 1.711v6.819c.346.119.708.188 1.074.204 2.195 0 2.209-1.002 2.66-2.236l.561.102c-.058.918-.24 1.824-.54 2.693h-6.881v-.347zM73.754 26.005h.328c.561-.062.636-.205.636-.99v-3.517c0-.518 0-1.18-.465-1.18a1.79 1.79 0 0 0-.5.089v-.43c.917-.302 1.87-.48 2.833-.532v5.544c0 .784.075.934.636.988h.328v.382h-3.803l.007-.354zm.684-8.864a1.042 1.042 0 0 1 1.087-1.023 1.066 1.066 0 0 1 1.088 1.023c0 .6-.489 1.087-1.091 1.087a1.09 1.09 0 0 1-1.091-1.087h.007zM79.534 20.325v-.627c0-2.046 1.073-4.139 3.515-4.139.604-.028 1.201.145 1.696.491a1.9 1.9 0 0 1-.622 1.105h-.11a2.992 2.992 0 0 0-1.614-.866c-.93 0-.998 1.2-.998 2.556v.853c.465 0 1.416.075 1.929.13v.381c-.684.075-1.28.116-1.93.143v4.657c0 .784.076.948.685.989h.622v.382h-4.104v-.382h.315c.574-.062.684-.205.684-.989l-.068-4.684zM85.744 22.575c0-.266 0-2.57 1.368-2.57.978 0 1.45.872 1.56 1.936-.959.286-1.937.498-2.928.634zm4.583 2.727a3.922 3.922 0 0 1-1.71.43c-2.134 0-2.6-1.596-2.77-2.482a26.053 26.053 0 0 0 4.685-1.398c-.171-.859-.575-2.407-3.085-2.407a3.555 3.555 0 0 0-2.571 1.082 3.532 3.532 0 0 0-.992 2.6c0 2.38 1.805 3.491 3.645 3.491a4.798 4.798 0 0 0 2.955-.948l-.157-.368zM19.952 4.964c-.617-.33-1.26-.611-1.922-.839a9.383 9.383 0 0 1 2.4-2.836l.137.061a9.348 9.348 0 0 0-.615 3.614zm-6.6-1.541c-.7.03-1.395.116-2.08.259a9.335 9.335 0 0 1 .602-3.668h.164a9.357 9.357 0 0 0 1.313 3.409zm3.406.327a12.705 12.705 0 0 0-2.06-.28A9.374 9.374 0 0 1 16.246.061l.15.048a9.367 9.367 0 0 0 .363 3.641zm5.957 3.218c-.49-.477-1.02-.915-1.58-1.309a9.405 9.405 0 0 1 3.05-2.127l.076.116a9.348 9.348 0 0 0-1.546 3.32zm2.155 2.66a12.738 12.738 0 0 0-1.218-1.685 9.397 9.397 0 0 1 3.509-1.254l.075.136a9.382 9.382 0 0 0-2.366 2.802zm1.23 2.76c-.17-.53-.376-1.05-.615-1.554a9.42 9.42 0 0 1 3.714-.32l.034.15a9.405 9.405 0 0 0-3.023 2.086 7.26 7.26 0 0 0-.11-.361zm.179 7.112c.176-.669.297-1.35.362-2.039a9.383 9.383 0 0 1 3.345 1.63l-.041.143a9.427 9.427 0 0 0-3.666.266zm.225-5.44a9.403 9.403 0 0 1 3.66.715v.15a9.418 9.418 0 0 0-3.468 1.18 12.65 12.65 0 0 0-.192-2.046zm-.636 6.722a9.403 9.403 0 0 1 2.805 2.427l-.083.13a9.431 9.431 0 0 0-3.611-.682c.346-.6.644-1.227.89-1.875zM9.952 4.016c-.651.208-1.285.468-1.895.777a9.326 9.326 0 0 1-.383-3.695l.15-.041a9.383 9.383 0 0 0 2.169 2.959h-.041zm10.225 23.4c.6-.342 1.173-.732 1.71-1.166a9.327 9.327 0 0 1 1.163 3.525l-.137.068a9.36 9.36 0 0 0-2.736-2.427zm2.723-2.06c.493-.487.946-1.014 1.354-1.574a9.38 9.38 0 0 1 2.052 3.095l-.116.103a9.43 9.43 0 0 0-3.29-1.623zM5.034 20.599c-3.2.013-4.22-1.957-4.22-1.957a12.772 12.772 0 0 1 .28-5.08c.658.485 1.432.79 2.244.887a9.4 9.4 0 0 0 1.409 0 21.775 21.775 0 0 0 2.1 5.59l.24.43c-.68.1-1.366.143-2.053.13zm4.788 5.236c-4.788.477-6.737-1.657-6.737-1.657a10.83 10.83 0 0 1-.896-1.397 12.625 12.625 0 0 1-.958-2.325c-.027-.096-.17-.553-.17-.553s.608 1.412 4.438 1.48a13.873 13.873 0 0 0 2.052-.177 20.692 20.692 0 0 0 3.577 4.418c-.424.088-.855.157-1.306.211zM5.294 13.67c-.677-3.06-.479-5.727.595-7.295.349-.26.711-.498 1.088-.723l.123-.075c.7 2.31 1.545 4.574 2.53 6.778l-.492.218a13.397 13.397 0 0 1-3.844 1.097zm-.65.041a4.504 4.504 0 0 1-3.235-.94 12.7 12.7 0 0 1 4.015-6.028c-1.005 1.698-1.272 4.18-.78 6.968zm7.189 12.512A9.59 9.59 0 0 0 17.1 28.63a12.478 12.478 0 0 1-12.203-2.728c2.148 1.003 4.7.846 6.936.32zm10.191-6.089c.38-.478.701-1 .958-1.554l.082.047c-.211.69-.51 1.35-.89 1.964a12.974 12.974 0 0 1-3.946 4.023c-.328.229-.67.436-1.026.62l-.185.096 1.984 2.55h-.055c-.41.21-.833.396-1.265.559-1.546 0-3.352-.866-5.123-2.394 1.22-.339 2.412-.774 3.563-1.302l.377-.177.684-.341a16.71 16.71 0 0 0 4.842-4.09zm-.24-9.198l.07.137a11.658 11.658 0 0 1-2.005 4.009 16.743 16.743 0 0 1-4.48 4.186c-.274.184-.663.416-1.108.648l-.52.259h-.04a69.539 69.539 0 0 0 2.386 3.77l-.41.191a21.043 21.043 0 0 1-3.803 1.31 22.245 22.245 0 0 1-3.495-4.419c.36-.077.725-.166 1.094-.266.322-.073.64-.164.95-.272.78-.256 1.545-.554 2.292-.894l.527-.245.568-.273.321-.17a19.757 19.757 0 0 0 5.472-4.343 11.12 11.12 0 0 0 2.182-3.628zM9.98 13.077c.623-.286.896-.457.896-.457l.096-.04a15.288 15.288 0 0 0 5.007-4.241c.4-.52.733-1.088.992-1.691l.082.054a8.365 8.365 0 0 1-.842 2.046 12.294 12.294 0 0 1-4.835 4.657l-.589.32h-.047l-.213.116-.17.089.225.477c.479.954 1.41 2.836 1.41 2.795.273.518.551 1.028.834 1.528l-.534.245a21.162 21.162 0 0 1-4.357 1.405l-.362-.682a24.241 24.241 0 0 1-2.1-5.305 15.25 15.25 0 0 0 4.001-1.098l.506-.218z"/>
    </g>
</svg>
