<svg xmlns="http://www.w3.org/2000/svg" width="24" height="20" viewBox="0 0 24 20">
    <g fill="#EAAB00" fill-rule="nonzero">
        <path d="M22.182 12.692C22.182 11.208 20.755 10 19 10s-3.182 1.208-3.182 2.692v.385H14V20h10v-6.923h-1.818v-.385zm-5.455 0c0-1.06 1.02-1.923 2.273-1.923 1.253 0 2.273.863 2.273 1.923v.385h-4.546v-.385zm6.364 1.154v5.385h-8.182v-5.385h8.182z"/>
        <path d="M18.125 17.143v.457c0 .221.168.4.375.4s.375-.179.375-.4v-.457c.645-.179 1.125-.8 1.125-1.543 0-.882-.673-1.6-1.5-1.6s-1.5.718-1.5 1.6c0 .744.48 1.364 1.125 1.543zM18.5 14.8c.414 0 .75.359.75.8 0 .441-.336.8-.75.8s-.75-.359-.75-.8c0-.441.336-.8.75-.8zM23.998.406a.406.406 0 0 0-.025-.138L23.97.26l-.017-.03a.413.413 0 0 0-.096-.124.387.387 0 0 0-.085-.057l-.04-.02A.395.395 0 0 0 23.586 0H.414c-.052 0-.1.012-.145.03C.254.034.242.041.229.048a.404.404 0 0 0-.085.057.417.417 0 0 0-.096.124L.031.26.026.268a.416.416 0 0 0-.024.137L0 .415V16.589c.001.044.008.089.023.132.001.005.005.01.007.014.006.015.015.027.022.04a.398.398 0 0 0 .174.175c.014.007.027.015.042.021A.418.418 0 0 0 .414 17h12.414a.414.414 0 0 0 0-.83H1.605c1.882-1.494 6.125-4.884 8.305-6.8l.588.52c.414.37.958.556 1.502.556a2.25 2.25 0 0 0 1.5-.554l9.672-8.558v8.617a.414.414 0 1 0 .828 0V.415l-.002-.01zM.828 15.73V1.334l8.456 7.483C6.985 10.829 2.518 14.389.828 15.73zM12.95 9.271c-.524.47-1.378.47-1.904-.001l-.819-.725-.005-.009c-.01-.01-.022-.014-.032-.024L1.507.83h20.986L12.95 9.271z"/>
    </g>
</svg>
