<svg xmlns="http://www.w3.org/2000/svg" width="16" height="20" viewBox="0 0 16 20">
    <g fill="#EAAB00" fill-rule="nonzero">
        <path d="M12.167 8H3.833c-.184 0-.333.179-.333.4 0 .221.15.4.333.4h8.334c.184 0 .333-.179.333-.4 0-.221-.15-.4-.333-.4zM3.833 5.8h3.334c.184 0 .333-.179.333-.4 0-.221-.15-.4-.333-.4H3.833c-.184 0-.333.179-.333.4 0 .221.15.4.333.4zM12.167 10H3.833c-.184 0-.333.179-.333.4 0 .221.15.4.333.4h8.334c.184 0 .333-.179.333-.4 0-.221-.15-.4-.333-.4zM12.167 13H3.833c-.184 0-.333.179-.333.4 0 .221.15.4.333.4h8.334c.184 0 .333-.179.333-.4 0-.221-.15-.4-.333-.4zM12.167 15H3.833c-.184 0-.333.179-.333.4 0 .221.15.4.333.4h8.334c.184 0 .333-.179.333-.4 0-.221-.15-.4-.333-.4z"/>
        <path d="M11.035 0H0v20h16V4.862L11.035 0zm.199 1.138l3.604 3.529h-3.604V1.138zM.681 19.333V.667h9.872v4.666h4.766v14H.681z"/>
    </g>
</svg>
