<svg xmlns="http://www.w3.org/2000/svg" width="20" height="20" viewBox="0 0 20 20">
    <g fill="#EAAB00" fill-rule="nonzero">
        <path d="M10 0C4.486 0 0 4.486 0 10s4.486 10 10 10 10-4.486 10-10S15.514 0 10 0zm0 19.286C4.88 19.286.714 15.12.714 10 .714 4.88 4.88.714 10 .714c5.12 0 9.286 4.166 9.286 9.286 0 5.12-4.166 9.286-9.286 9.286z"/>
        <path d="M14.286 5.714H5.714a.357.357 0 1 0 0 .715h8.572a.357.357 0 1 0 0-.715zM14.286 9.643H5.714a.357.357 0 1 0 0 .714h8.572a.357.357 0 1 0 0-.714zM14.286 13.571H5.714a.357.357 0 1 0 0 .715h8.572a.357.357 0 1 0 0-.715z"/>
    </g>
</svg>
