<svg xmlns="http://www.w3.org/2000/svg" width="20" height="20" viewBox="0 0 20 20">
    <path fill="#EAAB00" fill-rule="nonzero" d="M19.615 9.028L9.892 0 .17 9.028a.34.34 0 0 0 .462.497L1.757 8.48v11.305h16.271V8.48l1.125 1.044a.337.337 0 0 0 .479-.017.339.339 0 0 0-.017-.48zM7.858 19.107v-5.424c0-1.122.913-2.034 2.034-2.034 1.122 0 2.034.912 2.034 2.034v5.424H7.858zm9.492 0h-4.746v-5.424a2.715 2.715 0 0 0-2.712-2.712 2.715 2.715 0 0 0-2.712 2.712v5.424H2.435V7.85L9.892.925 17.35 7.85v11.257z"/>
</svg>
