<svg xmlns="http://www.w3.org/2000/svg" width="20" height="20" viewBox="0 0 20 21">
    <path fill="#EAAB00" fill-rule="nonzero" d="M19.886 19.72l-5.715-5.943a8.051 8.051 0 0 0 2.36-5.7C16.532 3.623 12.91 0 8.456 0 4.001 0 .378 3.623.378 8.077s3.623 8.077 8.077 8.077a8.04 8.04 0 0 0 5.148-1.859l5.729 5.958a.382.382 0 0 0 .543.011.385.385 0 0 0 .011-.544zM8.455 15.385c-4.03 0-7.308-3.278-7.308-7.308 0-4.03 3.278-7.308 7.308-7.308 4.03 0 7.308 3.278 7.308 7.308 0 4.03-3.279 7.308-7.308 7.308z"/>
</svg>
