<svg xmlns="http://www.w3.org/2000/svg" width="12" height="13" viewBox="0 0 12 13">
    <g fill="#FFF" fill-rule="evenodd">
        <path fill-rule="nonzero" d="M11.453 9.853C10.155 8.776 8.76 8.019 8.246 7.756V5.872c.293-.27.464-.654.464-1.058V2.481C8.71 1.115 7.603 0 6.248 0h-.496C4.397 0 3.29 1.115 3.29 2.48v2.328c0 .41.171.788.464 1.057v1.891c-.515.263-1.909 1.02-3.207 2.097A1.5 1.5 0 0 0 0 11.019v1.596c0 .212.04.385.25.385s.264-.173.264-.385V11.02c0-.224.095-.436.267-.577a18.037 18.037 0 0 1 3.213-2.077.49.49 0 0 0 .273-.436V5.686a.383.383 0 0 0-.171-.32.663.663 0 0 1-.293-.552V2.481c0-.943 1.014-1.972 1.949-1.972h.496c.935 0 1.949 1.03 1.949 1.972v2.327c0 .224-.108.43-.293.551a.383.383 0 0 0-.171.32v2.244c0 .186.101.36.273.436.293.141 1.813.917 3.213 2.077a.742.742 0 0 1 .267.577v1.596c0 .218.054.391.264.391.21 0 .25-.173.25-.385V11.02c0-.455-.197-.884-.547-1.166z"/>
        <rect width="5" height="1" x="5" y="12" rx=".5"/>
    </g>
</svg>
