<svg xmlns="http://www.w3.org/2000/svg" width="163" height="67" viewBox="0 0 163 67">
    <g fill="none" fill-rule="evenodd">
        <path fill="#002D3D" d="M8.868 33.761c-.31-1.158-.763-3.45-3.36-3.45-1.36 0-2.383.863-2.383 2.269 0 3.498 7.627 3.27 7.627 8.129 0 3.222-3.004 4.404-5.864 4.404-2.074 0-3.432-.523-4.195-.908C.12 42.775 0 41.752 0 39.938l1.122-.23c.334 1.364 1.12 4.541 4.171 4.541 1.501 0 2.504-.998 2.504-2.52 0-3.837-7.393-3.541-7.393-8.194 0-2.883 2.242-4.087 5.317-4.087 1.789 0 2.863.364 3.744.84.19 1.113.262 2.315.262 3.473h-.859M20.93 43.957c-.713.406-1.835 1.156-3.623 1.156-3.693 0-3.862-2.045-3.862-4.562v-3.293c0-.795 0-1.817-.714-1.817-.36 0-.668.114-.762.137v-.658c1.787-.568 3.098-.75 4.336-.818v6.38c0 1.793.359 3.315 2.695 3.315.905 0 1.453-.408 1.787-.57v-5.97c0-.794 0-1.816-.715-1.816-.36 0-.668.114-.763.137v-.658c1.788-.568 3.097-.75 4.339-.818v6.789c0 1.86 0 2.746.809 2.746.144 0 .428.023.668-.022l.049.59c-1.098.363-2.41.682-3.6.908l-.644-1.156M28.103 37.258c0-.795 0-1.816-.714-1.816-.358 0-.667.113-.763.136v-.658c1.788-.568 3.051-.75 4.291-.818v1.318c.596-.5 1.741-1.318 3.766-1.318 2.147 0 3.6.976 3.6 4.04v4.473c0 1.202.12 1.452.976 1.522l.502.045v.59h-5.817v-.59l.501-.045c.858-.07.976-.32.976-1.522v-3.222c0-1.795 0-3.973-2.477-3.973-.978 0-1.598.477-1.98.86v6.335c0 1.202.12 1.452.977 1.522l.501.045v.59h-5.767v-.59l.498-.045c.811-.07.93-.32.93-1.522v-5.357M65.896 65.666l.548-.068c1.145-.14 1.145-.184 1.145-2.682v-8.31c0-2.383 0-2.495-1.123-2.676l-.57-.071v-.59h10.988c.192 1.159.263 2.477.263 3.68l-.858.092c-.5-2.137-.62-2.908-3.718-2.908h-1.884v6.312h1.86c1.86 0 2.335 0 2.501-.978l.144-.793h.62v4.564h-.62l-.118-.863c-.192-.908-.787-.908-2.503-.908h-1.884v3.449c0 2.43 0 2.498 1.145 2.682l.548.068v.588h-6.484v-.588M78.57 65.666l.501-.047c.86-.092.976-.32.976-1.523V58.74c0-.795 0-1.816-.713-1.816-.357 0-.668.113-.764.135v-.657c1.79-.568 3.1-.75 4.34-.82v8.514c0 1.203.12 1.43.977 1.523l.5.047v.588H78.57v-.588zm1.074-13.578c0-.863.715-1.567 1.67-1.567.904 0 1.67.704 1.67 1.567 0 .95-.766 1.613-1.67 1.613-.955 0-1.67-.683-1.67-1.613zM87.438 58.74c0-.795 0-1.816-.717-1.816-.355 0-.664.113-.76.134v-.656c1.788-.568 3.049-.75 4.29-.82v1.32c.597-.5 1.742-1.32 3.769-1.32 2.145 0 3.598.978 3.598 4.043v4.47c0 1.204.119 1.456.976 1.524l.502.047v.588H93.28v-.588l.5-.047c.857-.068.976-.32.976-1.524v-3.222c0-1.793 0-3.971-2.478-3.971-.98 0-1.598.477-1.98.861v6.332c0 1.204.12 1.456.978 1.524l.502.047v.588h-5.77v-.588l.5-.047c.813-.068.93-.32.93-1.524V58.74M106.563 63.508c0 .432.07.998.096 1.225-.192.136-.645.546-1.455.546-1.073 0-1.764-.818-1.764-1.908 0-1.68 1.504-2.36 2.86-2.36.095 0 .167.022.263.022v2.475zm4.576 2.225c-.07.02-.12.02-.19.02-1.525 0-1.525-1.68-1.525-3.311v-2.793c0-2.59-.525-4.067-3.527-4.067-2.408 0-4.055 1.297-5.127 2.408.19.545.31.727.645 1.159h.238c.308-.682 1-2.246 2.836-2.246 1.693 0 2.074 1.2 2.074 2.54v.545c-1.98.499-6.174 1.272-6.174 4.13 0 1.454 1.264 2.478 3.12 2.478 1.67 0 2.648-.705 3.316-1.158.383.566.81 1.158 2.338 1.158 1.046 0 1.738-.41 2.048-.568l-.072-.295zM113.666 58.74c0-.795 0-1.816-.713-1.816-.359 0-.668.113-.764.134v-.656c1.788-.568 3.05-.75 4.29-.82v1.32c.595-.5 1.74-1.32 3.765-1.32 2.147 0 3.6.978 3.6 4.043v4.47c0 1.204.121 1.456.978 1.524l.5.047v.588h-5.816v-.588l.5-.047c.86-.068.978-.32.978-1.524v-3.222c0-1.793 0-3.971-2.478-3.971-.979 0-1.598.477-1.98.861v6.332c0 1.204.12 1.456.98 1.524l.5.047v.588h-5.77v-.588l.5-.047c.811-.068.93-.32.93-1.524V58.74M136.112 65.437c-.764.521-2.002 1.158-4.291 1.158-2.6 0-5.578-1.705-5.578-5.017 0-4.2 3.598-5.996 6.269-5.996 1.694 0 2.62.32 3.243.75-.122.75-.336 1.181-.93 1.863h-.215c-.521-.569-1.357-1.475-2.74-1.475-1.528 0-2.576 1.383-2.576 3.678 0 3.381 2.05 4.881 4.433 4.881.834 0 1.836-.274 2.172-.389l.213.547M137.354 65.666l.502-.047c.857-.092.977-.32.977-1.523V58.74c0-.795 0-1.816-.713-1.816-.358 0-.67.113-.766.135v-.657c1.789-.568 3.102-.75 4.34-.82v8.514c0 1.203.119 1.43.976 1.523l.502.047v.588h-5.818v-.588zm1.072-13.578c0-.863.717-1.567 1.67-1.567.906 0 1.668.704 1.668 1.567 0 .95-.762 1.613-1.668 1.613-.953 0-1.67-.683-1.67-1.613zM151.037 63.508c0 .432.07.998.096 1.225-.19.136-.645.546-1.454.546-1.073 0-1.762-.818-1.762-1.908 0-1.68 1.5-2.36 2.86-2.36.095 0 .167.022.26.022v2.475zm4.578 2.225c-.072.02-.12.02-.192.02-1.524 0-1.524-1.68-1.524-3.311v-2.793c0-2.59-.525-4.067-3.53-4.067-2.407 0-4.05 1.297-5.125 2.408.19.545.311.727.643 1.159h.24c.308-.682 1-2.246 2.838-2.246 1.691 0 2.072 1.2 2.072 2.54v.545c-1.978.499-6.172 1.272-6.172 4.13 0 1.454 1.262 2.478 3.12 2.478 1.671 0 2.646-.705 3.314-1.158.381.566.813 1.158 2.337 1.158 1.048 0 1.742-.41 2.05-.568l-.07-.295zM156.641 65.666l.498-.047c.859-.092.981-.32.981-1.523v-10.24c0-1.997 0-2.881-.813-2.881-.287 0-.57.045-.666.045v-.59c1.979-.385 3.051-.522 4.336-.522v14.188c0 1.203.121 1.43.978 1.523l.502.047v.588h-5.816v-.588M21.38 65.644l.573-.066c1.12-.205 1.12-.114 1.12-2.704v-8.33c0-2.203 0-2.476-1.12-2.632l-.572-.069v-.592h6.484v.592l-.572.07c-1.121.155-1.121.428-1.121 2.631v10.512c.717.158.902.317 1.643.317 3.359 0 3.384-1.543 4.076-3.428l.855.158c-.142 1.477-.307 2.68-.832 4.133H21.38v-.592M33.877 65.644l.502-.043c.856-.092.977-.318.977-1.52v-5.36c0-.794 0-1.815-.716-1.815-.357 0-.668.113-.763.134v-.658c1.789-.566 3.099-.748 4.338-.816v8.514c0 1.203.119 1.43.976 1.521l.502.043v.592h-5.816v-.592zm1.072-13.576c0-.862.717-1.565 1.668-1.565.907 0 1.67.703 1.67 1.565 0 .953-.763 1.613-1.67 1.613-.951 0-1.668-.682-1.668-1.613zM42.728 56.928v-1.021c0-3.155 1.643-6.358 5.387-6.358 1.261 0 2.072.362 2.597.752-.166.7-.356 1.133-.953 1.7h-.168c-.45-.41-1.549-1.317-2.479-1.317-1.428 0-1.525 1.84-1.525 3.928v1.294a45.8 45.8 0 0 1 2.955.206v.588a43.686 43.686 0 0 1-2.955.227v7.152c0 1.204.12 1.454 1 1.523l.955.042v.593H41.25v-.593l.477-.043c.882-.091 1.002-.319 1.002-1.522v-7.151M52.225 60.38c0-.41 0-3.952 2.075-3.952 1.5 0 2.217 1.34 2.385 2.974-1.455.456-2.957.75-4.46.979m7.014 4.22c-.333.16-1.333.657-2.621.657-3.267 0-3.982-2.451-4.244-3.813 2.478-.543 5.123-1.271 7.174-2.177-.26-1.317-.88-3.701-4.72-3.701-2.716 0-5.457 2.043-5.457 5.652 0 3.656 2.764 5.359 5.58 5.359 2.405 0 3.907-.976 4.526-1.455l-.237-.521"/>
        <path fill="#FDBE10" d="M74.383 7.61c-.055-1.88.259-3.766.935-5.539l-.201-.12a14.363 14.363 0 0 0-3.641 4.373c1.003.35 1.975.781 2.907 1.285M64.306 5.243a14.372 14.372 0 0 1-2.002-5.24L62.072 0a14.365 14.365 0 0 0-.92 5.617 19.697 19.697 0 0 1 3.155-.374M69.504 5.75a14.369 14.369 0 0 1-.555-5.585l-.224-.063a14.367 14.367 0 0 0-2.363 5.174 19.42 19.42 0 0 1 3.142.475M78.601 10.677a14.332 14.332 0 0 1 2.357-5.093l-.162-.169a14.378 14.378 0 0 0-4.664 3.262 19.68 19.68 0 0 1 2.47 2M81.867 14.75a14.354 14.354 0 0 1 3.614-4.292l-.112-.205a14.327 14.327 0 0 0-5.356 1.917c.68.8 1.303 1.663 1.854 2.58M83.774 18.99c.059.183.113.368.166.552a14.346 14.346 0 0 1 4.619-3.193l-.055-.229a14.378 14.378 0 0 0-5.671.443c.36.778.677 1.586.94 2.426M84.041 29.887a14.422 14.422 0 0 1 5.602-.409l.068-.223a14.357 14.357 0 0 0-5.11-2.495 19.301 19.301 0 0 1-.56 3.127M84.397 21.543c.186 1.057.279 2.113.289 3.163a14.392 14.392 0 0 1 5.293-1.865l.008-.233a14.336 14.336 0 0 0-5.59-1.065M83.418 31.842c-.375.994-.83 1.955-1.36 2.875a14.316 14.316 0 0 1 5.512 1.08l.127-.197a14.366 14.366 0 0 0-4.279-3.758M59.104 6.144c.021-.007.04-.012.06-.02a14.355 14.355 0 0 1-3.314-4.531l-.225.059a14.35 14.35 0 0 0 .585 5.66c.92-.458 1.885-.85 2.894-1.168M74.724 42.01a14.326 14.326 0 0 1 4.195 3.725l.21-.106a14.306 14.306 0 0 0-1.778-5.402 19.405 19.405 0 0 1-2.627 1.783M78.88 38.853a14.41 14.41 0 0 1 5.03 2.49l.175-.156a14.398 14.398 0 0 0-3.141-4.75 19.49 19.49 0 0 1-2.063 2.416M51.623 31.568a18.896 18.896 0 0 0 3.174-.196c-.121-.217-.243-.43-.361-.652-1.541-2.88-2.61-5.804-3.211-8.57-.712.037-1.432.027-2.153-.044-2.128-.234-3.49-1.344-3.49-1.344a19.684 19.684 0 0 0-.427 7.783s1.554 3.044 6.468 3.023"/>
        <path fill="#FDBE10" d="M58.902 39.56a26.782 26.782 0 0 0 1.997-.32c-1.966-1.817-3.84-4.106-5.463-6.77a21.044 21.044 0 0 1-3.136.273c-5.849-.1-6.782-2.269-6.782-2.269.04.143.218.703.261.846.365 1.211.848 2.4 1.465 3.554a16.67 16.67 0 0 0 1.367 2.143s3.014 3.303 10.291 2.543M51.996 20.951c1.594-.169 3.553-.664 5.908-1.687.248-.107.494-.215.751-.334-1.624-3.679-2.923-7.189-3.868-10.38-.063.039-.123.08-.186.117a19.82 19.82 0 0 0-1.658 1.106c-1.678 2.399-1.982 6.483-.947 11.178"/>
        <path fill="#FDBE10" d="M51.002 21.015c-.748-4.27-.342-8.082 1.197-10.654a19.472 19.472 0 0 0-6.14 9.209c.369.347 1.863 1.523 4.943 1.445M61.982 40.185c-3.416.803-7.314 1.051-10.598-.484 4.968 4.593 12.082 6.257 18.642 4.173-2.532-.156-5.346-1.47-8.044-3.689"/>
        <path fill="#FDBE10" d="M77.545 30.858c-1.666 2.192-4.262 4.41-7.401 6.24a30.41 30.41 0 0 1-1.616.794 36.29 36.29 0 0 1-5.49 2.022c2.712 2.338 5.47 3.666 7.83 3.672a19.246 19.246 0 0 0 1.976-.866c.03-.013.059-.027.09-.043.033-.015-2.25-2.892-3.032-3.91.092-.047.184-.09.279-.14.64-.34 1.194-.68 1.567-.954 2.74-1.83 4.748-4.027 6.03-6.16.624-1.035 1.08-2.057 1.36-3.013l-.13-.076c-.34.792-.838 1.612-1.463 2.434"/>
        <path fill="#FDBE10" d="M77.179 16.762c-.604 1.816-1.753 3.721-3.335 5.563-2.105 2.447-4.981 4.784-8.405 6.65-.162.089-.326.177-.488.261l.002.006c-.287.148-.576.285-.863.424-.268.129-.54.251-.805.374-1.17.53-2.343.994-3.5 1.371 0 0-.7.25-1.45.415l.01.014c-.563.154-1.12.289-1.67.402 1.63 2.65 3.464 4.939 5.355 6.75a31.8 31.8 0 0 0 5.808-2.012c.227-.101.439-.205.625-.295a106.045 106.045 0 0 1-3.643-5.775l.059-.033c.252-.121.52-.256.797-.403.675-.357 1.27-.707 1.695-.991 2.78-1.757 5.112-4.063 6.84-6.416 1.56-2.128 2.627-4.298 3.065-6.145l-.097-.16"/>
        <path fill="#FDBE10" d="M59.152 20.038c-.234.108-.499.224-.775.339-1.55.65-3.738 1.403-6.113 1.682.677 2.604 1.748 5.363 3.214 8.104.182.337.368.67.555.999 2.607-.514 4.98-1.412 6.657-2.156.291-.128.567-.254.816-.37-.43-.768-.856-1.55-1.277-2.344.045.068-1.423-2.818-2.155-4.285-.117-.244-.235-.49-.349-.732.09-.045.176-.09.267-.137.112-.058.22-.118.327-.176.081-.036.091-.037.072-.026l.898-.487c3.541-1.96 5.965-4.593 7.383-7.133.615-1.097 1.043-2.18 1.287-3.18l-.129-.08c-.332.88-.847 1.803-1.514 2.729-1.669 2.319-4.32 4.672-7.644 6.502l-.146.068s-.426.249-1.374.683"/>
    </g>
</svg>
