<svg xmlns="http://www.w3.org/2000/svg" width="71" height="72" viewBox="0 0 71 72">
    <path fill="#EAAB00" fill-rule="evenodd" d="M46.688 11.707a30.137 30.137 0 0 0-4.44-1.994 22.21 22.21 0 0 1 5.56-6.786l.308.186a22.63 22.63 0 0 0-1.428 8.594zM31.099 8.196a34.99 34.99 0 0 0-5.265.584A21.178 21.178 0 0 1 27.368 0l.39.005a21.63 21.63 0 0 0 3.341 8.19zm7.628.584a27.967 27.967 0 0 0-4.694-.738A22.765 22.765 0 0 1 37.563 0l.335.098a23.193 23.193 0 0 0 .83 8.682zm14.465 8.196a31.023 31.023 0 0 0-3.903-3.115 22.731 22.731 0 0 1 7.372-5.08l.256.263a22.173 22.173 0 0 0-3.725 7.932zm5.536 6.439a30.565 30.565 0 0 0-2.984-4.03 23.52 23.52 0 0 1 8.621-2.995l.18.32a22.604 22.604 0 0 0-5.817 6.705zm2.57 6.692a34.86 34.86 0 0 0-1.447-4.026 20.538 20.538 0 0 1 8.717-.735l.085.38c-2.678 1.246-5.088 3.057-7.1 5.298a34.03 34.03 0 0 0-.255-.917zm.314 16.722c.419-1.529.712-3.092.867-4.683a22.63 22.63 0 0 1 7.934 3.738l-.105.334a23.178 23.178 0 0 0-8.696.611zm.586-12.876A21.5 21.5 0 0 1 71 35.726l-.013.388a21.867 21.867 0 0 0-8.334 3.106 33.915 33.915 0 0 0-.455-5.267zM60.8 50.34a22.746 22.746 0 0 1 6.68 6.119l-.199.32a21.544 21.544 0 0 0-8.603-1.758 32.65 32.65 0 0 0 2.122-4.68zM22.787 9.327a33.392 33.392 0 0 0-4.71 1.795 20.849 20.849 0 0 1-.95-8.69l.365-.09c1.297 2.641 3.139 5.002 5.392 6.956-.032.011-.063.019-.097.03zm24.155 56.735a31.023 31.023 0 0 0 4.201-2.842 22.763 22.763 0 0 1 2.84 8.611L53.65 72a22.88 22.88 0 0 0-6.707-5.938zm6.455-4.949a30.379 30.379 0 0 0 3.256-3.747 22.307 22.307 0 0 1 4.959 7.368l-.275.242a22.91 22.91 0 0 0-7.94-3.863zm-42.66-11.366C2.83 49.78.33 45 .33 45c-.618-4.113-.36-8.27.687-12.22 0 0 2.191 1.743 5.615 2.11 1.16.112 2.318.128 3.463.068.967 4.345 2.687 8.934 5.166 13.457.19.347.386.683.581 1.024a31.139 31.139 0 0 1-5.106.308zm11.37 12.706c-11.381 1.21-16.096-4.045-16.096-4.045A26.582 26.582 0 0 1 3.873 55a31.134 31.134 0 0 1-2.291-5.653c-.067-.228-.347-1.119-.408-1.346 0 0 1.459 3.449 10.607 3.61 1.565-.012 3.21-.161 4.906-.435 2.538 4.238 5.47 7.88 8.544 10.77-1.008.201-2.05.378-3.123.508zM10.943 32.78C9.27 25.467 9.76 19.105 12.474 15.368a32.171 32.171 0 0 1 2.68-1.722c.103-.058.2-.122.302-.183 1.528 4.971 3.629 10.439 6.255 16.17-.416.185-.814.353-1.215.52-3.808 1.593-6.976 2.364-9.554 2.627zm-1.151.58c-5.004.124-7.431-1.749-8.03-2.302a30.984 30.984 0 0 1 9.975-14.668c-2.5 4.097-3.16 10.169-1.945 16.97zm16.863 30.058c4.246 3.593 8.675 5.721 12.66 5.974-10.324 3.375-21.52.68-29.339-6.758 5.169 2.486 11.303 2.084 16.68.784zm24.833-14.492c.98-1.301 1.76-2.6 2.293-3.853l.203.12c-.438 1.514-1.153 3.131-2.131 4.77-2.01 3.376-5.156 6.854-9.45 9.75-.585.434-1.453.972-2.457 1.51-.148.08-.293.148-.437.222 1.226 1.612 4.804 6.166 4.752 6.19a1.912 1.912 0 0 1-.14.067 30.01 30.01 0 0 1-3.096 1.371c-3.7-.01-8.023-2.111-12.272-5.812 3.465-.963 6.503-2.221 8.603-3.2a47.48 47.48 0 0 0 2.533-1.258c4.92-2.898 8.988-6.407 11.599-9.877zm-.005-22.585l.154.253c-.698 2.918-2.399 6.347-4.889 9.709-2.756 3.718-6.474 7.36-10.91 10.137a32.243 32.243 0 0 1-2.704 1.566c-.44.232-.87.445-1.271.636l-.094.052c1.895 3.186 3.876 6.31 5.81 9.125-.296.142-.634.306-.996.466a51.05 51.05 0 0 1-9.265 3.178c-3.016-2.86-5.942-6.477-8.54-10.664a43.187 43.187 0 0 0 2.662-.635l-.014-.022c1.196-.261 2.311-.656 2.311-.656a54.9 54.9 0 0 0 5.583-2.166c.424-.194.857-.387 1.284-.591.458-.22.919-.436 1.377-.67l-.004-.01c.259-.132.52-.271.779-.412 5.462-2.948 10.05-6.64 13.407-10.506 2.523-2.91 4.356-5.92 5.32-8.79zm-28.783 5.243c1.51-.686 2.187-1.08 2.187-1.08l.233-.107c5.29-2.893 9.51-6.613 12.167-10.28 1.061-1.463 1.881-2.92 2.41-4.312l.205.125c-.389 1.582-1.07 3.293-2.049 5.027-2.257 4.016-6.115 8.178-11.751 11.277l-1.43.77c.03-.017.015-.016-.114.041-.172.092-.342.187-.52.278a21.65 21.65 0 0 1-.426.217c.182.384.37.771.556 1.157 1.165 2.32 3.502 6.882 3.43 6.775.67 1.256 1.348 2.491 2.033 3.705-.397.184-.836.383-1.3.585-2.67 1.176-6.446 2.596-10.595 3.409a83.203 83.203 0 0 1-.884-1.58c-2.333-4.333-4.038-8.695-5.115-12.812 3.78-.44 7.26-1.631 9.73-2.659.439-.182.86-.365 1.233-.536z"/>
</svg>
